<svg xmlns="http://www.w3.org/2000/svg" viewBox="0 0 48 48" fill="none">
  <defs>
    <linearGradient id="g1" x1="0" y1="48" x2="48" y2="0" gradientUnits="userSpaceOnUse">
      <stop offset="0%" stop-color="#004643"/>
      <stop offset="50%" stop-color="#006661"/>
      <stop offset="100%" stop-color="#008a85"/>
    </linearGradient>
  </defs>
  <rect width="48" height="48" rx="13" fill="url(#g1)"/>
  <path d="M10 14 C10 13 11 12 12 12 L22 13.5 L22 34 L12 32.5 C11 32.3 10 31.3 10 30.3 Z" fill="white" opacity="0.92"/>
  <path d="M26 13.5 L36 12 C37 12 38 13 38 14 L38 30.3 C38 31.3 37 32.3 36 32.5 L26 34 Z" fill="white" opacity="0.75"/>
  <line x1="24" y1="13" x2="24" y2="34" stroke="url(#g1)" stroke-width="1.5" stroke-linecap="round"/>
  <polyline points="18,20 24,13 30,20" stroke="white" stroke-width="2.8" stroke-linecap="round" stroke-linejoin="round" fill="none"/>
  <line x1="24" y1="13" x2="24" y2="8" stroke="white" stroke-width="2.8" stroke-linecap="round"/>
</svg>
